<svg width="61" height="11" viewBox="0 0 61 11" fill="none" xmlns="http://www.w3.org/2000/svg">
<path d="M61 7.2817C61 7.47728 60.985 7.68791 60.9699 7.91358H55.3732C55.5688 9.05699 56.4113 9.61365 57.5547 9.61365C58.3672 9.61365 59.1344 9.26762 59.5256 8.62069L60.6991 9.20744C60.0823 10.3809 58.8185 10.9827 57.4795 10.9827C55.4485 10.9827 53.8537 9.52338 53.8537 7.29675C53.8537 5.07012 55.4786 3.65591 57.4795 3.65591C59.4805 3.65591 61 5.07012 61 7.2817ZM55.3883 6.72504H59.5256C59.3902 5.62677 58.5778 5.02498 57.4946 5.02498C56.4113 5.02498 55.5989 5.5666 55.3883 6.72504Z" fill="#FF5656"/>
<path d="M51.7344 3.65591C52.2159 3.65591 52.7123 3.77626 52.938 3.91167L52.6822 5.31083C52.2911 5.1303 51.93 5.07012 51.6442 5.07012C50.3653 5.07012 49.7636 6.4091 49.7636 8.30475V10.8323H48.2741V3.80635H49.7636V5.38606C50.1246 4.15238 50.8317 3.65591 51.7344 3.65591Z" fill="#FF5656"/>
<path d="M44.2964 3.80635H45.7708V10.8323H44.2964V9.77914C43.83 10.5765 42.822 10.9827 41.8742 10.9827C39.9635 10.9827 38.3838 9.53842 38.3838 7.31179C38.3838 5.07012 39.9635 3.65591 41.8592 3.65591C42.8521 3.65591 43.83 4.04707 44.2964 4.84445V3.80635ZM42.0397 9.58356C43.2283 9.58356 44.2814 8.71096 44.2814 7.29675C44.2814 5.88254 43.1229 5.05507 42.0397 5.05507C40.8361 5.05507 39.8582 5.97281 39.8582 7.29675C39.8582 8.60565 40.8361 9.58356 42.0397 9.58356Z" fill="#FF5656"/>
<path d="M35.742 3.80626H37.3368L34.7641 10.8322H33.5154L31.695 5.79217L29.9347 10.8322H28.7161L26.0532 3.80626H27.6479L29.3329 8.60555L31.0029 3.80626H32.387L34.072 8.60555L35.742 3.80626Z" fill="#FF5656"/>
<path d="M25.2843 3.80626V5.03993H23.7798V10.8322H22.3054V5.03993H21.0417V3.80626H22.3054V1.17342H23.7798V3.80626H25.2843Z" fill="#FF5656"/>
<path d="M19.9602 1.39917C18.7416 1.39917 18.4106 2.10627 18.4256 2.99391V3.80633H20.0354V5.04001H18.4256V10.8323H16.9513V5.04001H15.5972V3.80633H16.9513V3.15941C16.9513 1.24872 17.7787 0 19.6894 0H20.4717V1.39917H19.9602Z" fill="#FF5656"/>
<path d="M10.7172 10.9827C8.71621 10.9827 7.03119 9.52338 7.03119 7.29675C7.03119 5.07012 8.71621 3.65591 10.7172 3.65591C12.7181 3.65591 14.4182 5.07012 14.4182 7.29675C14.4182 9.52338 12.7181 10.9827 10.7172 10.9827ZM10.7172 9.58356C11.9208 9.58356 12.9438 8.66582 12.9438 7.29675C12.9438 5.94272 11.9208 5.04003 10.7172 5.04003C9.51358 5.04003 8.50558 5.94272 8.50558 7.29675C8.50558 8.66582 9.51358 9.58356 10.7172 9.58356Z" fill="#FF5656"/>
<path d="M2.67797 10.9827C1.36908 10.9827 0.0300896 10.1553 0 8.69591H1.36908C1.36908 9.25257 1.86556 9.73401 2.66293 9.73401C3.47535 9.73401 3.97183 9.35789 3.97183 8.83132C3.97183 8.36493 3.59571 8.12421 3.06914 8.00385L2.12132 7.77818C0.812419 7.43215 0.210627 6.75513 0.210627 5.71704C0.210627 4.57364 1.24872 3.65591 2.70806 3.65591C3.91165 3.65591 5.2055 4.28779 5.2055 5.76218H3.79129C3.79129 5.25065 3.26472 4.90462 2.73815 4.90462C2.12132 4.90462 1.70006 5.28074 1.70006 5.76218C1.70006 6.19848 2.10627 6.43919 2.54257 6.54451L3.61075 6.80027C5.11523 7.17639 5.44622 8.10917 5.44622 8.86141C5.44622 10.2004 4.12228 10.9827 2.67797 10.9827Z" fill="#FF5656"/>
</svg>
