<svg width="131" height="15" viewBox="0 0 131 15" fill="none" xmlns="http://www.w3.org/2000/svg">
<path d="M129.028 3.6136H131V9.66627C131 12.7378 129.449 14.1681 126.965 14.1681C125.459 14.1681 124.149 13.325 123.547 12.0301L125.188 11.3225C125.489 11.9548 126.212 12.4065 126.965 12.4065C128.23 12.4065 129.028 11.7139 129.028 9.87706V9.77166C128.516 10.4492 127.552 10.7654 126.769 10.7654C124.962 10.7654 123.321 9.36514 123.321 7.10668C123.321 4.84822 124.962 3.44797 126.769 3.44797C127.567 3.44797 128.516 3.76416 129.028 4.4417V3.6136ZM127.146 8.92851C128.109 8.92851 128.967 8.17569 128.967 7.10668C128.967 6.02262 128.064 5.29991 127.146 5.29991C126.152 5.29991 125.324 6.06779 125.324 7.10668C125.324 8.13052 126.152 8.92851 127.146 8.92851Z" fill="#FF5656"/>
<path d="M118.759 3.43278C120.596 3.43278 121.559 4.66741 121.544 6.7753V10.6297H119.572V6.98609C119.572 5.87192 118.909 5.37506 118.232 5.37506C117.524 5.37506 116.651 5.75147 116.651 7.03126V10.6297H114.679V3.61346H116.651V4.78786C116.952 3.8393 118.066 3.43278 118.759 3.43278Z" fill="#FF5656"/>
<path d="M111.401 2.36385C110.724 2.36385 110.151 1.83688 110.151 1.1744C110.151 0.511917 110.724 0 111.401 0C112.094 0 112.651 0.511917 112.651 1.1744C112.651 1.83688 112.094 2.36385 111.401 2.36385ZM110.422 10.6298V3.61354H112.395V10.6298H110.422Z" fill="#FF5656"/>
<path d="M107.936 3.43278C108.313 3.43278 108.734 3.49301 109.05 3.65863L108.599 5.54068C108.177 5.31483 107.831 5.28472 107.59 5.28472C106.581 5.28472 105.889 6.21821 105.889 8.22072V10.6297H103.916V3.61346H105.873V5.10404C106.265 3.92964 107.063 3.43278 107.936 3.43278Z" fill="#FF5656"/>
<path d="M102.087 7.00115C102.087 7.19688 102.072 7.43778 102.057 7.75397H96.7574C96.9682 8.56701 97.6307 9.01871 98.5793 9.01871C99.2869 9.01871 99.9946 8.73263 100.416 8.23577L101.575 9.39512C100.913 10.2834 99.6784 10.7652 98.4437 10.7652C96.2907 10.7652 94.7098 9.28972 94.7098 7.1216C94.7098 4.84808 96.4262 3.43278 98.4437 3.43278C100.446 3.43278 102.087 4.84808 102.087 7.00115ZM96.7574 6.47417H100.115C100.055 5.64607 99.3622 5.14921 98.4739 5.14921C97.6759 5.14921 96.9682 5.52562 96.7574 6.47417Z" fill="#FF5656"/>
<path d="M93.302 7.00115C93.302 7.19688 93.287 7.43778 93.2719 7.75397H87.9721C88.1829 8.56701 88.8454 9.01871 89.7939 9.01871C90.5016 9.01871 91.2092 8.73263 91.6308 8.23577L92.7901 9.39512C92.1277 10.2834 90.893 10.7652 89.6584 10.7652C87.5053 10.7652 85.9244 9.28972 85.9244 7.1216C85.9244 4.84808 87.6408 3.43278 89.6584 3.43278C91.6609 3.43278 93.302 4.84808 93.302 7.00115ZM87.9721 6.47417H91.3297C91.2694 5.64607 90.5768 5.14921 89.6885 5.14921C88.8905 5.14921 88.1829 5.52562 87.9721 6.47417Z" fill="#FF5656"/>
<path d="M81.362 3.43278C83.1989 3.43278 84.1625 4.66741 84.1474 6.7753V10.6297H82.175V6.98609C82.175 5.87192 81.5125 5.37506 80.835 5.37506C80.1273 5.37506 79.2541 5.75147 79.2541 7.03126V10.6297H77.2817V3.61346H79.2541V4.78786C79.5552 3.8393 80.6694 3.43278 81.362 3.43278Z" fill="#FF5656"/>
<path d="M74.0042 2.36385C73.3266 2.36385 72.7545 1.83688 72.7545 1.1744C72.7545 0.511917 73.3266 0 74.0042 0C74.6967 0 75.2538 0.511917 75.2538 1.1744C75.2538 1.83688 74.6967 2.36385 74.0042 2.36385ZM73.0255 10.6298V3.61354H74.9979V10.6298H73.0255Z" fill="#FF5656"/>
<path d="M68.7604 3.6136H70.7328V9.66627C70.7328 12.7378 69.182 14.1681 66.6977 14.1681C65.1921 14.1681 63.8822 13.325 63.2799 12.0301L64.9211 11.3225C65.2222 11.9548 65.9449 12.4065 66.6977 12.4065C67.9625 12.4065 68.7604 11.7139 68.7604 9.87706V9.77166C68.2485 10.4492 67.2849 10.7654 66.502 10.7654C64.6952 10.7654 63.0541 9.36514 63.0541 7.10668C63.0541 4.84822 64.6952 3.44797 66.502 3.44797C67.3 3.44797 68.2485 3.76416 68.7604 4.4417V3.6136ZM66.8784 8.92851C67.842 8.92851 68.7002 8.17569 68.7002 7.10668C68.7002 6.02262 67.7968 5.29991 66.8784 5.29991C65.8847 5.29991 65.0566 6.06779 65.0566 7.10668C65.0566 8.13052 65.8847 8.92851 66.8784 8.92851Z" fill="#FF5656"/>
<path d="M58.4916 3.43278C60.3285 3.43278 61.2921 4.66741 61.2771 6.7753V10.6297H59.3047V6.98609C59.3047 5.87192 58.6422 5.37506 57.9647 5.37506C57.257 5.37506 56.3837 5.75147 56.3837 7.03126V10.6297H54.4113V3.61346H56.3837V4.78786C56.6849 3.8393 57.799 3.43278 58.4916 3.43278Z" fill="#FF5656"/>
<path d="M52.5821 7.00115C52.5821 7.19688 52.5671 7.43778 52.552 7.75397H47.2522C47.463 8.56701 48.1254 9.01871 49.074 9.01871C49.7816 9.01871 50.4893 8.73263 50.9109 8.23577L52.0702 9.39512C51.4077 10.2834 50.1731 10.7652 48.9385 10.7652C46.7854 10.7652 45.2045 9.28972 45.2045 7.1216C45.2045 4.84808 46.9209 3.43278 48.9385 3.43278C50.941 3.43278 52.5821 4.84808 52.5821 7.00115ZM47.2522 6.47417H50.6097C50.5495 5.64607 49.8569 5.14921 48.9686 5.14921C48.1706 5.14921 47.463 5.52562 47.2522 6.47417Z" fill="#FF5656"/>
<path d="M39.9087 7.00115C39.9087 7.19688 39.8936 7.43778 39.8786 7.75397H34.5787C34.7895 8.56701 35.452 9.01871 36.4005 9.01871C37.1082 9.01871 37.8158 8.73263 38.2374 8.23577L39.3968 9.39512C38.7343 10.2834 37.4997 10.7652 36.265 10.7652C34.112 10.7652 32.531 9.28972 32.531 7.1216C32.531 4.84808 34.2475 3.43278 36.265 3.43278C38.2675 3.43278 39.9087 4.84808 39.9087 7.00115ZM34.5787 6.47417H37.9363C37.8761 5.64607 37.1835 5.14921 36.2951 5.14921C35.4972 5.14921 34.7895 5.52562 34.5787 6.47417Z" fill="#FF5656"/>
<path d="M28.088 3.43278C29.8496 3.43278 30.768 4.66741 30.768 6.7753V10.6297H28.7806V6.92587C28.7806 5.82675 28.2084 5.37506 27.5158 5.37506C26.7329 5.36 26.1758 5.85686 26.1306 6.91081V10.6297H24.1583V6.91081C24.1583 5.81169 23.5861 5.37506 22.9236 5.37506C22.216 5.37506 21.4933 5.7063 21.4933 6.97104V10.6297H19.5209V3.61346H21.4933V4.86314C21.7041 3.89953 22.6978 3.43278 23.4807 3.43278C24.5196 3.43278 25.3327 3.92964 25.7392 4.78786C26.2812 3.76402 27.3653 3.43278 28.088 3.43278Z" fill="#FF5656"/>
<path d="M15.2563 3.6136H17.2287V10.6299H15.2563V9.75661C14.7594 10.4492 13.7808 10.7654 12.9979 10.7654C11.1911 10.7654 9.54993 9.36514 9.54993 7.10668C9.54993 4.84822 11.1911 3.44797 12.9979 3.44797C13.8109 3.44797 14.7594 3.7491 15.2563 4.45675V3.6136ZM13.3743 8.92851C14.3379 8.92851 15.1961 8.17569 15.1961 7.10668C15.1961 6.02262 14.2927 5.29991 13.3743 5.29991C12.3805 5.29991 11.5524 6.06779 11.5524 7.10668C11.5524 8.13052 12.3805 8.92851 13.3743 8.92851Z" fill="#FF5656"/>
<path d="M5.70638 3.6136H7.67876V9.66627C7.67876 12.7378 6.12796 14.1681 3.64365 14.1681C2.13801 14.1681 0.828102 13.325 0.225846 12.0301L1.86699 11.3225C2.16812 11.9548 2.89083 12.4065 3.64365 12.4065C4.90839 12.4065 5.70638 11.7139 5.70638 9.87706V9.77166C5.19446 10.4492 4.23085 10.7654 3.44792 10.7654C1.64115 10.7654 0 9.36514 0 7.10668C0 4.84822 1.64115 3.44797 3.44792 3.44797C4.24591 3.44797 5.19446 3.76416 5.70638 4.4417V3.6136ZM3.82433 8.92851C4.78794 8.92851 5.64615 8.17569 5.64615 7.10668C5.64615 6.02262 4.74277 5.29991 3.82433 5.29991C2.8306 5.29991 2.0025 6.06779 2.0025 7.10668C2.0025 8.13052 2.8306 8.92851 3.82433 8.92851Z" fill="#FF5656"/>
</svg>
