<svg width="19" height="11" viewBox="0 0 19 11" fill="none" xmlns="http://www.w3.org/2000/svg">
<path d="M17.2734 4.71064C18.3034 5.05901 19.0001 5.96782 19.0001 7.13412C19.0001 8.95173 17.5763 10.1635 15.5315 10.1635C14.1229 10.1635 12.9414 9.42128 12.3053 8.14895L13.4867 7.43705C13.9411 8.27013 14.6681 8.76997 15.4709 8.76997C16.6524 8.76997 17.5006 8.11866 17.5006 7.14927C17.5006 6.08899 16.6675 5.3771 15.4861 5.3771H14.4712V4.15021H15.3346C16.3797 4.15021 17.0462 3.54434 17.031 2.69612C17.031 1.90849 16.4252 1.40865 15.5467 1.40865C14.8953 1.40865 14.1986 1.75702 13.8199 2.30231L12.8505 1.43894C13.3958 0.575577 14.4712 0 15.6224 0C17.3491 0 18.5457 1.06027 18.5306 2.66583C18.5306 3.57463 18.0459 4.34712 17.2734 4.71064Z" fill="#FF5656"/>
<path d="M9.75451 2.95391H11.3601L8.76997 10.0274H7.51279L5.68003 4.95328L3.90786 10.0274H2.68097L0 2.95391H1.60556L3.30199 7.78573L4.98328 2.95391H6.37678L8.07322 7.78573L9.75451 2.95391Z" fill="#FF5656"/>
</svg>
