<svg width="458" height="116" viewBox="0 0 458 116" fill="none" xmlns="http://www.w3.org/2000/svg">
<path d="M457.078 77.4055C456.923 78.3307 456.769 79.41 456.307 80.3352H391.699C389.541 97.7591 399.563 108.553 415.908 108.553C426.547 108.553 437.032 103.464 443.817 94.8294L449.214 97.7591C440.733 108.861 427.627 115.183 414.366 115.183C394.012 115.183 380.906 100.226 385.377 77.4055C389.849 54.739 408.661 40.0905 429.014 40.0905C449.368 40.0905 461.549 54.739 457.078 77.4055ZM392.779 74.4758H450.756C453.069 57.3603 443.509 46.7209 427.781 46.7209C411.745 46.7209 397.867 56.8977 392.779 74.4758Z" fill="#FF5656"/>
<path d="M399.254 40.0905C402.492 40.0905 406.192 40.5531 409.585 41.7867L406.655 48.2628C403.263 47.0293 400.179 46.7209 397.712 46.7209C378.283 46.7209 369.34 69.079 365.794 85.732L360.397 113.641H353.612L367.644 41.6325H374.428L370.574 61.3693C375.97 49.188 386.301 40.0905 399.254 40.0905Z" fill="#FF5656"/>
<path d="M356.377 41.6325H363.161L349.13 113.641H342.345L345.429 97.6049C337.411 108.244 323.996 115.183 310.735 115.183C290.228 115.183 276.813 98.8385 280.976 77.5597C285.139 56.2809 304.876 40.0905 325.384 40.0905C338.799 40.0905 349.13 47.0293 352.985 57.8228L356.377 41.6325ZM312.432 108.553C329.239 108.553 345.738 95.9088 349.13 78.1765C352.83 59.3648 340.958 46.7209 324.459 46.7209C307.652 46.7209 291.153 60.2899 287.761 77.5597C284.368 94.8294 295.624 108.553 312.432 108.553Z" fill="#FF5656"/>
<path d="M292.219 41.6325H299.466L258.45 113.641H252.128L240.101 50.1132L204.174 113.641H197.698L184.129 41.6325H191.376L202.94 103.464L237.943 41.6325H245.652L257.063 103.31L292.219 41.6325Z" fill="#FF5656"/>
<path d="M199.37 41.6323L198.136 47.6459H180.712L167.914 113.641H161.13L173.928 47.6459H160.821L162.055 41.6323H175.161L181.021 11.8729H187.805L181.946 41.6323H199.37Z" fill="#FF5656"/>
<path d="M183.066 6.63035C168.88 6.63035 162.558 16.9614 159.937 30.0679L157.624 41.6324H177.207L175.973 47.646H156.39L143.592 113.641H136.808L149.606 47.646H135.112L136.345 41.6324H150.839L152.998 30.5304C156.39 13.1065 165.334 0 183.837 0H189.696L188.309 6.63035H183.066Z" fill="#FF5656"/>
<path d="M96.0884 115.183C75.4263 115.183 61.3947 100.38 65.8663 77.4055C70.3379 54.5848 90.0748 40.0905 110.737 40.0905C131.245 40.0905 145.585 54.5848 141.113 77.4055C136.641 100.38 116.596 115.183 96.0884 115.183ZM97.4761 108.553C114.283 108.553 130.474 96.3714 134.174 77.4055C137.875 58.5938 126.31 46.7209 109.503 46.7209C92.5419 46.7209 76.1973 58.5938 72.4967 77.4055C68.796 96.3714 80.5147 108.553 97.4761 108.553Z" fill="#FF5656"/>
<path d="M28.9333 115.183C9.19647 115.183 -1.13454 101.306 0.0990142 86.8115H7.03775C6.42097 97.9134 14.7475 108.553 30.3211 108.553C49.9037 108.553 61.3141 95.7547 63.3186 85.2695C65.7857 72.6256 56.2257 66.3036 44.9695 63.374L30.6295 59.9817C9.96744 55.0475 9.50486 42.7119 11.201 34.2313C14.4391 17.4241 32.7882 6.16792 49.5953 6.16792C67.1735 6.16792 78.738 16.4989 76.5793 33.3061H69.6406C71.0283 20.8164 61.9309 12.7983 48.2076 12.7983C35.1011 12.7983 20.761 21.4331 18.1397 34.2313C16.9062 40.399 17.2146 49.6507 33.5591 53.5055L47.745 56.8978C62.5476 60.7527 73.3412 69.0791 70.2574 84.8069C67.4819 98.6844 52.9876 115.183 28.9333 115.183Z" fill="#FF5656"/>
</svg>
