<svg width="1071" height="422" viewBox="0 0 1071 422" fill="none" xmlns="http://www.w3.org/2000/svg">
<path d="M899.088 2.00159C954.445 2.00159 1001.72 12.768 1032.25 32.4663C1047.54 42.3296 1058.72 54.4916 1064.51 68.7451C1070.31 83.0134 1070.64 99.1845 1064.58 116.896C1059.65 133.71 1046.93 149.369 1028.43 162.937C1011.3 175.495 989.104 186.345 963.194 194.737C991.622 203.165 1013.51 215.995 1027.01 232.383C1041.36 249.819 1046.08 271.134 1039.24 294.923L1038.91 296.058C1027.73 333.053 993.603 363.924 945.319 385.516C896.982 407.13 834.16 419.594 764.986 419.594C675.384 419.594 610.85 398.085 576.985 353.762L575.473 351.784L577.73 350.732L687.104 299.801L688.333 299.228L689.32 300.158C711.749 321.261 739.781 333.978 783.057 333.978C812.81 333.978 838.436 328.947 857.616 320.42C876.838 311.875 889.318 299.953 893.365 286.319C895.385 279.358 895.025 272.979 892.57 267.298C890.104 261.591 885.454 256.428 878.631 252.063C864.942 243.305 842.794 237.958 813.491 237.958H753.74L754.509 235.384L774.481 168.498L774.908 167.069H801.127C835.639 167.069 863.637 161.271 883.405 152.365C903.279 143.412 914.378 131.554 916.13 119.688C917.389 110.713 912.463 103.119 901.738 97.5982C890.96 92.0495 874.675 88.8451 854.387 88.8451C816.663 88.8451 772.353 100.426 743.245 119.207L741.837 120.116L740.694 118.889L686.483 60.5931L684.735 58.7137L686.985 57.4764C745.242 25.4348 814.999 2.00162 899.088 2.00159Z" stroke="#FF5656" stroke-width="4"/>
<path d="M159.044 124.114L159.294 125.828L182.378 284.297L302.179 124.913L302.78 124.114H418.689L418.938 125.828L442.022 284.297L561.823 124.913L562.424 124.114H719.896L717.127 127.405L476.504 413.358L475.905 414.071H353.424L353.16 412.378L326.318 240.394L198.869 413.257L198.269 414.071H75.8641L75.4819 412.56L3.19981 126.607L2.5704 124.114H159.044Z" stroke="#FF5656" stroke-width="4"/>
</svg>
